External Loads File
version=1
nRows=70
nColumns=13
Range=5.000000e-03-10 seconds
endheader
time 	forceRightX 	forceRightY 	forceRightZ 	pointRightX 	pointRightY 	pointRightZ 	forceLeftX 	forceLeftY 	forceLeftZ 	pointLeftX 	pointLeftY 	pointLeftZ 		
7.505000 38.611904 -21.374305 -0.000000 0.149215 0.390720 -0.144747 -204.041480 885.550989 -0.000000 0.417953 0.253286 -0.382211
7.510000 34.033378 -28.065109 -0.000000 0.153725 0.400609 -0.144911 -26.878857 920.816492 -0.000000 0.413836 0.243264 -0.382153
7.515000 30.319775 -31.143968 -0.000000 0.158795 0.410312 -0.145104 32.405590 932.675702 -0.000000 0.408892 0.233692 -0.381834
7.520000 28.135969 -31.622277 -0.000000 0.164389 0.419828 -0.145401 -23.068302 943.781755 -0.000000 0.403734 0.224478 -0.381561
7.525000 24.002889 -33.638322 -0.000000 0.170560 0.429054 -0.145699 -74.530557 949.838937 -0.000000 0.398123 0.215430 -0.381186
7.530000 14.095640 -38.924366 -0.000000 0.177215 0.437851 -0.146113 -13.126049 958.369744 -0.000000 0.392000 0.207158 -0.380807
7.535000 7.184224 -42.805675 -0.000000 0.184336 0.446236 -0.146502 -58.113302 958.705532 -0.000000 0.385449 0.199863 -0.380461
7.540000 -5.957844 -47.296289 -0.000000 0.191834 0.454274 -0.147071 15.279220 958.210606 -0.000000 0.378376 0.192619 -0.380258
7.545000 -13.905852 -52.091388 -0.000000 0.200078 0.461560 -0.147306 -27.401012 951.509009 -0.000000 0.370949 0.185840 -0.380152
7.550000 -28.393678 -54.573421 -0.000000 0.208444 0.468415 -0.147818 46.066692 940.164191 -0.000000 0.363094 0.179692 -0.379968
7.555000 -44.192302 -53.974416 -0.000000 0.218363 0.474515 -0.147494 135.392979 916.891158 -0.000000 0.355448 0.173345 -0.380408
7.560000 -52.224573 -57.855569 -0.000000 0.226928 0.480546 -0.148449 97.823709 903.645398 -0.000000 0.346971 0.168191 -0.380529
7.565000 -66.764500 -53.316379 -0.000000 0.236460 0.485252 -0.148949 171.092708 871.216713 -0.000000 0.338016 0.163616 -0.380332
7.570000 -73.957310 -54.261949 -0.000000 0.246110 0.489673 -0.149475 135.846085 852.993473 -0.000000 0.328969 0.159609 -0.380306
7.575000 -80.592273 -52.928303 -0.000000 0.255720 0.493563 -0.150045 102.364503 830.201878 -0.000000 0.319650 0.156238 -0.380269
7.580000 -91.929731 -37.880687 -0.000000 0.265706 0.496783 -0.150427 165.296221 788.727194 -0.000000 0.310169 0.153537 -0.380196
7.585000 -99.792342 -16.654676 -0.000000 0.275791 0.499389 -0.150947 227.347686 737.341746 -0.000000 0.300568 0.151472 -0.380196
7.590000 -102.638539 -3.607290 -0.000000 0.286185 0.501312 -0.151202 192.348801 707.736705 -0.000000 0.290863 0.150104 -0.380224
7.595000 -102.349793 26.209181 -0.000000 0.296329 0.502478 -0.151584 242.698782 647.003402 -0.000000 0.281077 0.149424 -0.380214
7.600000 -101.613581 46.665932 -0.000000 0.306463 0.502997 -0.152016 209.647102 609.253617 -0.000000 0.271145 0.149614 -0.380190
7.605000 -90.975350 81.883879 -0.000000 0.316418 0.503415 -0.152408 249.162221 538.585076 -0.000000 0.261256 0.150583 -0.380146
7.610000 -87.077175 106.436879 -0.000000 0.324675 0.503086 -0.153029 215.721828 493.688131 -0.000000 0.251372 0.152287 -0.379947
7.615000 -83.986583 131.994374 -0.000000 0.333560 0.501593 -0.153211 184.806797 443.999044 -0.000000 0.241630 0.154821 -0.379670
7.620000 -61.920285 167.178026 -0.000000 0.341737 0.499596 -0.153284 204.769132 367.592318 -0.000000 0.232164 0.157871 -0.379374
7.625000 -59.266885 193.524039 -0.000000 0.349593 0.496720 -0.153293 173.506304 314.798053 -0.000000 0.222974 0.161686 -0.379084
7.630000 -31.686515 226.444427 -0.000000 0.356667 0.493207 -0.152964 176.687184 240.273271 -0.000000 0.214101 0.166017 -0.378825
7.635000 -32.452965 255.184242 -0.000000 0.363080 0.488674 -0.152956 145.153993 189.368415 -0.000000 0.205535 0.170801 -0.378543
7.640000 -2.349596 288.508716 -0.000000 0.369706 0.483219 -0.152428 133.311433 123.972836 -0.000000 0.197347 0.176130 -0.378415
7.645000 -10.137265 322.631600 -0.000000 0.375564 0.477028 -0.151984 102.903536 80.094184 -0.000000 0.189479 0.181960 -0.378269
7.650000 27.628631 359.071520 -0.000000 0.381048 0.470167 -0.151514 81.880757 27.719177 -0.000000 0.182079 0.188178 -0.378247
7.655000 11.561491 400.069939 -0.000000 0.386156 0.462542 -0.151036 55.830062 -5.540227 -0.000000 0.175001 0.194921 -0.378308
7.660000 42.904248 440.240393 -0.000000 0.391160 0.454227 -0.150547 30.916600 -38.658289 -0.000000 0.167605 0.201797 -0.377504
7.665000 77.847090 478.942749 -0.000000 0.395902 0.445407 -0.149917 5.460531 -61.814704 -0.000000 0.161336 0.209412 -0.377547
7.670000 49.503090 525.262915 -0.000000 0.400401 0.436139 -0.149340 -8.669846 -77.382281 -0.000000 0.155668 0.217429 -0.377733
7.675000 81.755032 562.210705 -0.000000 0.405214 0.426574 -0.149489 -27.806303 -85.935310 -0.000000 0.150192 0.225886 -0.377714
7.680000 42.250848 604.329058 -0.000000 0.409631 0.416759 -0.149871 -32.216085 -92.466677 -0.000000 0.145463 0.234625 -0.377651
7.685000 -5.479566 639.983747 -0.000000 0.413227 0.406559 -0.149556 -31.953871 -95.514542 -0.000000 0.141141 0.243724 -0.377771
7.690000 34.693572 669.649705 -0.000000 0.417171 0.396102 -0.149196 -41.154211 -90.447042 -0.000000 0.137344 0.253146 -0.377832
7.695000 -19.915663 697.328193 -0.000000 0.420384 0.385706 -0.149374 -34.386461 -88.257747 -0.000000 0.134077 0.262844 -0.377936
7.700000 7.520658 721.591402 -0.000000 0.423125 0.375184 -0.149431 -35.414029 -80.109173 -0.000000 0.131464 0.272869 -0.377967
7.705000 -53.100895 741.239782 -0.000000 0.425303 0.364454 -0.149293 -24.640556 -74.738267 -0.000000 0.129402 0.282883 -0.378045
7.710000 -19.925334 762.413533 -0.000000 0.426960 0.353522 -0.149147 -21.670522 -65.179727 -0.000000 0.127926 0.293183 -0.378131
7.715000 -78.917487 776.718437 -0.000000 0.427939 0.342511 -0.149112 -9.596949 -57.408089 -0.000000 0.127093 0.303608 -0.378169
7.720000 -47.391258 796.298806 -0.000000 0.428716 0.331559 -0.149545 -3.446063 -47.899776 -0.000000 0.126921 0.314084 -0.378231
7.725000 -2.944143 814.043196 -0.000000 0.428682 0.320557 -0.149573 3.578076 -39.098408 -0.000000 0.127312 0.324643 -0.378326
7.730000 -57.018364 828.164152 -0.000000 0.428140 0.309575 -0.149676 15.555936 -29.749150 -0.000000 0.128260 0.335058 -0.378389
7.735000 -14.240208 846.204728 -0.000000 0.426863 0.298538 -0.148574 23.906294 -22.256735 -0.000000 0.129925 0.346432 -0.378493
7.740000 -67.820414 860.351320 -0.000000 0.425129 0.287724 -0.148403 34.365078 -12.411168 -0.000000 0.132108 0.356513 -0.378413
7.745000 -8.123288 880.506087 -0.000000 0.422925 0.277091 -0.148336 42.467112 -7.949515 -0.000000 0.134914 0.366767 -0.378522
7.750000 -60.920378 897.114688 -0.000000 0.420266 0.266459 -0.149196 50.515264 0.590051 -0.000000 0.138470 0.377187 -0.378674
7.755000 -4.714775 919.114823 -0.000000 0.416852 0.256186 -0.148879 56.975678 1.390383 -0.000000 0.142520 0.387275 -0.378624
7.760000 -56.086169 938.740961 -0.000000 0.412964 0.246081 -0.148685 61.341311 6.822020 -0.000000 0.147088 0.397213 -0.378591
7.765000 14.376982 962.758553 -0.000000 0.408567 0.236230 -0.148411 64.153541 2.157031 -0.000000 0.152455 0.406941 -0.378630
7.770000 -36.301578 985.377381 -0.000000 0.403605 0.226990 -0.147577 64.119278 3.282303 -0.000000 0.158347 0.416351 -0.378605
7.775000 50.886014 1007.977241 -0.000000 0.398082 0.217697 -0.147033 61.554365 -6.470437 -0.000000 0.164834 0.425385 -0.378501
7.780000 0.296072 1031.612522 -0.000000 0.392221 0.209018 -0.146833 56.969814 -9.546310 -0.000000 0.171865 0.433988 -0.378482
7.785000 -50.080077 1050.880460 -0.000000 0.385871 0.200900 -0.146633 50.610768 -14.933166 -0.000000 0.179446 0.442208 -0.378477
7.790000 28.640797 1069.190449 -0.000000 0.379019 0.193157 -0.146528 39.949112 -27.540092 -0.000000 0.187431 0.449828 -0.378379
7.795000 -21.713695 1082.884778 -0.000000 0.371783 0.186095 -0.146431 30.572450 -36.068406 -0.000000 0.195850 0.456896 -0.378495
7.800000 62.954062 1089.954333 -0.000000 0.364132 0.179497 -0.146356 15.005654 -48.636744 -0.000000 0.203961 0.463511 -0.377768
7.805000 146.898676 1084.967370 -0.000000 0.356155 0.173590 -0.146208 -3.033890 -59.302195 -0.000000 0.213094 0.469713 -0.377914
7.810000 99.532198 1087.337183 -0.000000 0.347964 0.168130 -0.146008 -14.622867 -69.655684 -0.000000 0.222421 0.475236 -0.377871
7.815000 186.175180 1066.353732 -0.000000 0.339429 0.163351 -0.145896 -35.058878 -76.833057 -0.000000 0.233352 0.480273 -0.378619
7.820000 138.266871 1057.406417 -0.000000 0.330873 0.159054 -0.145481 -45.641914 -86.360209 -0.000000 0.242747 0.484706 -0.377953
7.825000 220.887341 1019.731473 -0.000000 0.322151 0.155340 -0.145122 -66.123002 -87.427846 -0.000000 0.252587 0.488487 -0.377790
7.830000 176.507791 997.595421 -0.000000 0.313377 0.152367 -0.144711 -74.570508 -93.114629 -0.000000 0.262540 0.491735 -0.377805
7.835000 248.787557 942.950906 -0.000000 0.304453 0.149949 -0.144298 -92.099832 -86.028248 -0.000000 0.272863 0.494350 -0.377514
7.840000 205.313019 906.551901 -0.000000 0.295491 0.148088 -0.143778 -96.981886 -85.783989 -0.000000 0.282987 0.496283 -0.377571
7.845000 270.138007 833.161898 -0.000000 0.286602 0.146828 -0.143275 -109.461004 -69.469407 -0.000000 0.293060 0.497578 -0.377645
7.850000 225.606438 782.566355 -0.000000 0.277705 0.146291 -0.142692 -110.055594 -63.126915 -0.000000 0.302909 0.498149 -0.377821
